# Made in Blockbench 4.2.5
mtllib falchion.mtl

o mesh1
v 0.06249999999999999 0.12499999999999999 -7.183867075072657e-18
v -0.06249999999999999 0.125 3.224473780788188e-18
v 0.06249999999999999 0.16087657178422715 -0.08661370617293314
v -0.06249999999999999 0.16087657178422718 -0.08661370617293312
v 0.06250000000000001 0.21161370617293312 -0.035876571784227186
v -0.06249999999999998 0.21161370617293312 -0.03587657178422717
v 0.06250000000000001 0.21161370617293312 0.03587657178422715
v -0.06249999999999997 0.21161370617293312 0.035876571784227165
v 0.06250000000000001 0.16087657178422715 0.08661370617293312
v -0.06249999999999998 0.16087657178422718 0.08661370617293312
v 0.06249999999999999 0.08912342821577282 0.08661370617293312
v -0.06249999999999999 0.08912342821577285 0.08661370617293314
v 0.06249999999999998 0.03838629382706686 0.03587657178422717
v -0.06250000000000001 0.03838629382706689 0.035876571784227186
v 0.06249999999999997 0.03838629382706686 -0.03587657178422716
v -0.06250000000000001 0.03838629382706689 -0.035876571784227144
v 0.06249999999999998 0.08912342821577282 -0.08661370617293312
v -0.06250000000000001 0.08912342821577285 -0.08661370617293312
vt 0.59375 0.765625
vt 0.626896875 0.751896875
vt 0.59375 0.71875
vt 0.59375 0.6875
vt 0.59375 0.625
vt 0.5625 0.625
vt 0.5625 0.6875
vt 0.283146875 0.373103125
vt 0.25 0.359375
vt 0.25 0.40625
vt 0.595646875 0.408146875
vt 0.609375 0.375
vt 0.5625 0.375
vt 0.59375 0.8125
vt 0.59375 0.75
vt 0.5625 0.75
vt 0.5625 0.8125
vt 0.640625 0.71875
vt 0.626896875 0.685603125
vt 0.59375 0.71875
vt 0.640625 0.626896875
vt 0.626896875 0.59375
vt 0.59375 0.626896875
vt 0.59375 0.9375
vt 0.59375 0.875
vt 0.5625 0.875
vt 0.5625 0.9375
vt 0.626896875 0.59375
vt 0.640625 0.560603125
vt 0.59375 0.560603125
vt 0.564396875 0.357478125
vt 0.53125 0.34375
vt 0.53125 0.390625
vt 0.59375 0.5625
vt 0.59375 0.5
vt 0.5625 0.5
vt 0.5625 0.5625
vt 0 0.375
vt 0.033146875 0.361271875
vt 0 0.328125
vt 0.658146875 0.8125
vt 0.625 0.826228125
vt 0.658146875 0.859375
vt 0.59375 0.625
vt 0.59375 0.5625
vt 0.5625 0.5625
vt 0.5625 0.625
vt 0.625 0.455021875
vt 0.658146875 0.46875
vt 0.658146875 0.421875
vt 0.607478125 0.3125
vt 0.59375 0.345646875
vt 0.640625 0.345646875
vt 0.59375 0.75
vt 0.59375 0.6875
vt 0.5625 0.6875
vt 0.5625 0.75
vt 0.03125 0.310603125
vt 0.044978125 0.34375
vt 0.078125 0.310603125
vt 0.21875 0.3125
vt 0.232478125 0.345646875
vt 0.265625 0.3125
vt 0.59375 0.875
vt 0.59375 0.8125
vt 0.5625 0.8125
vt 0.5625 0.875
vt 0.669978125 0.779353125
vt 0.65625 0.8125
vt 0.703125 0.8125
vt 0.65625 0.720646875
vt 0.689396875 0.734375
vt 0.689396875 0.6875
vt 0.59375 0.46875
vt 0.59375 0.40625
vt 0.5625 0.40625
vt 0.5625 0.46875
vt 0.689396875 0.640625
vt 0.65625 0.654353125
vt 0.689396875 0.6875
vn 1 -1.9452086685093367e-16 -1.1061559977521022e-16
vn 9.813077866773594e-17 0.7071067811865476 -0.7071067811865477
vn -1 1.9452086685093367e-16 1.1061559977521022e-16
vn 1 -1.9452086685093367e-16 -1.1061559977521022e-16
vn 2.220446049250313e-16 1 -5.55111512312578e-17
vn -1 1.9452086685093367e-16 1.1061559977521022e-16
vn 1 -1.9452086685093367e-16 -1.1061559977521022e-16
vn 2.1588771306901914e-16 0.7071067811865478 0.7071067811865475
vn -1 1.9452086685093367e-16 1.1061559977521022e-16
vn 1 -1.9452086685093367e-16 -1.1061559977521022e-16
vn 8.326672684688675e-17 5.5511151231257815e-17 1
vn -1 1.9452086685093367e-16 1.1061559977521022e-16
vn 1 -1.9452086685093367e-16 -1.1061559977521022e-16
vn -9.813077866773594e-17 -0.7071067811865476 0.7071067811865477
vn -1 1.9452086685093367e-16 1.1061559977521022e-16
vn 1 -1.9452086685093367e-16 -1.1061559977521022e-16
vn -2.220446049250313e-16 -1 5.55111512312578e-17
vn -1 1.9452086685093367e-16 1.1061559977521022e-16
vn 1 -1.9452086685093367e-16 -1.1061559977521022e-16
vn -2.1588771306901914e-16 -0.7071067811865478 -0.7071067811865475
vn -1 1.9452086685093367e-16 1.1061559977521022e-16
vn 1 -1.9452086685093367e-16 -1.1061559977521022e-16
vn -8.326672684688675e-17 -5.5511151231257815e-17 -1
vn -1 1.9452086685093367e-16 1.1061559977521022e-16
usemtl m_3
f 3/1/1 5/2/1 1/3/1
f 6/4/2 5/5/2 3/6/2 4/7/2
f 6/8/3 4/9/3 2/10/3
f 5/11/4 7/12/4 1/13/4
f 8/14/5 7/15/5 5/16/5 6/17/5
f 8/18/6 6/19/6 2/20/6
f 7/21/7 9/22/7 1/23/7
f 10/24/8 9/25/8 7/26/8 8/27/8
f 10/28/9 8/29/9 2/30/9
f 9/31/10 11/32/10 1/33/10
f 12/34/11 11/35/11 9/36/11 10/37/11
f 12/38/12 10/39/12 2/40/12
f 11/41/13 13/42/13 1/43/13
f 14/44/14 13/45/14 11/46/14 12/47/14
f 14/48/15 12/49/15 2/50/15
f 13/51/16 15/52/16 1/53/16
f 16/54/17 15/55/17 13/56/17 14/57/17
f 16/58/18 14/59/18 2/60/18
f 15/61/19 17/62/19 1/63/19
f 18/64/20 17/65/20 15/66/20 16/67/20
f 18/68/21 16/69/21 2/70/21
f 17/71/22 3/72/22 1/73/22
f 4/74/23 3/75/23 17/76/23 18/77/23
f 4/78/24 18/79/24 2/80/24
o mesh6
v 0 0.675 0
v 0 0.7375 0
v 0 0.675 -0.09375
v 0 0.7375 -0.09375
v 0.06629126073623882 0.675 -0.06629126073623884
v 0.06629126073623882 0.7375 -0.06629126073623884
v 0.09375 0.675 -5.740531871003218e-18
v 0.09375 0.7375 -5.740531871003218e-18
v 0.06629126073623884 0.675 0.06629126073623882
v 0.06629126073623884 0.7375 0.06629126073623882
v 1.1481063742006436e-17 0.675 0.09375
v 1.1481063742006436e-17 0.7375 0.09375
v -0.06629126073623882 0.675 0.06629126073623884
v -0.06629126073623882 0.7375 0.06629126073623884
v -0.09375 0.675 1.7221595613009655e-17
v -0.09375 0.7375 1.7221595613009655e-17
v -0.06629126073623884 0.675 -0.06629126073623881
v -0.06629126073623884 0.7375 -0.06629126073623881
vt 0.65625 0.609375
vt 0.689396875 0.595646875
vt 0.65625 0.5625
vt 0.03125 0.3125
vt 0.03125 0.28125
vt 0 0.28125
vt 0 0.3125
vt 0.533146875 0.341853125
vt 0.5 0.328125
vt 0.5 0.375
vt 0.658146875 0.533146875
vt 0.671875 0.5
vt 0.625 0.5
vt 0.125 0.34375
vt 0.125 0.3125
vt 0.09375 0.3125
vt 0.09375 0.34375
vt 0.671875 0.40625
vt 0.658146875 0.373103125
vt 0.625 0.40625
vt 0.703125 0.314396875
vt 0.689396875 0.28125
vt 0.65625 0.314396875
vt 0.625 0.53125
vt 0.625 0.5
vt 0.59375 0.5
vt 0.59375 0.53125
vt 0.126896875 0.3125
vt 0.140625 0.279353125
vt 0.09375 0.279353125
vt 0.220646875 0.294978125
vt 0.1875 0.28125
vt 0.1875 0.328125
vt 0.1875 0.3125
vt 0.1875 0.28125
vt 0.15625 0.28125
vt 0.15625 0.3125
vt 0.6875 0.875
vt 0.720646875 0.861271875
vt 0.6875 0.828125
vt 0.283146875 0.25
vt 0.25 0.263728125
vt 0.283146875 0.296875
vt 0.6875 0.5
vt 0.6875 0.46875
vt 0.65625 0.46875
vt 0.65625 0.5
vt 0.6875 0.548771875
vt 0.720646875 0.5625
vt 0.720646875 0.515625
vt 0.513728125 0.25
vt 0.5 0.283146875
vt 0.546875 0.283146875
vt 0.3125 0.34375
vt 0.3125 0.3125
vt 0.28125 0.3125
vt 0.28125 0.34375
vt 0.6875 0.466853125
vt 0.701228125 0.5
vt 0.734375 0.466853125
vt 0.5625 0.28125
vt 0.576228125 0.314396875
vt 0.609375 0.28125
vt 0.625 0.46875
vt 0.625 0.4375
vt 0.59375 0.4375
vt 0.59375 0.46875
vt 0.701228125 0.404353125
vt 0.6875 0.4375
vt 0.734375 0.4375
vt 0 0.251896875
vt 0.033146875 0.265625
vt 0.033146875 0.21875
vt 0.71875 0.78125
vt 0.71875 0.75
vt 0.6875 0.75
vt 0.6875 0.78125
vt 0.751896875 0.953125
vt 0.71875 0.966853125
vt 0.751896875 1
vn 0 -1 0
vn 0.3826834323650897 0 -0.9238795325112868
vn 0 1 0
vn 0 -1 0
vn 0.9238795325112867 0 -0.3826834323650898
vn 0 1 0
vn 0 -1 0
vn 0.9238795325112868 0 0.3826834323650897
vn 0 1 0
vn 0 -1 0
vn 0.38268343236508984 0 0.9238795325112867
vn 0 1 0
vn 0 -1 0
vn -0.38268343236508967 0 0.9238795325112868
vn 0 1 0
vn 0 -1 0
vn -0.9238795325112867 0 0.38268343236508984
vn 0 1 0
vn 0 -1 0
vn -0.9238795325112868 0 -0.3826834323650897
vn 0 1 0
vn 0 -1 0
vn -0.38268343236509 0 -0.9238795325112867
vn 0 1 0
usemtl m_3
f 21/81/25 23/82/25 19/83/25
f 24/84/26 23/85/26 21/86/26 22/87/26
f 24/88/27 22/89/27 20/90/27
f 23/91/28 25/92/28 19/93/28
f 26/94/29 25/95/29 23/96/29 24/97/29
f 26/98/30 24/99/30 20/100/30
f 25/101/31 27/102/31 19/103/31
f 28/104/32 27/105/32 25/106/32 26/107/32
f 28/108/33 26/109/33 20/110/33
f 27/111/34 29/112/34 19/113/34
f 30/114/35 29/115/35 27/116/35 28/117/35
f 30/118/36 28/119/36 20/120/36
f 29/121/37 31/122/37 19/123/37
f 32/124/38 31/125/38 29/126/38 30/127/38
f 32/128/39 30/129/39 20/130/39
f 31/131/40 33/132/40 19/133/40
f 34/134/41 33/135/41 31/136/41 32/137/41
f 34/138/42 32/139/42 20/140/42
f 33/141/43 35/142/43 19/143/43
f 36/144/44 35/145/44 33/146/44 34/147/44
f 36/148/45 34/149/45 20/150/45
f 35/151/46 21/152/46 19/153/46
f 22/154/47 21/155/47 35/156/47 36/157/47
f 22/158/48 36/159/48 20/160/48
o mesh9
v 0.025 1.9125 -0.046875
v 0.025 0.7250000000000001 -0.046875
v -0.025 1.9125 -0.046875
v -0.025 0.7250000000000001 -0.046875
v 0.025 1.9875 0.023437500000000003
v -0.025 1.9875 0.023437500000000003
v -0.025 0.7250000000000001 0.03125
v 0.025 0.7250000000000001 0.03125
v 0 0.7250000000000001 -0.10937499999999999
v 0 1.9125 -0.10937499999999999
v 0 2.05 0.023437500000000003
v 0 0.7250000000000001 0.03125
v -0.025 2.0375 0.09375
v 0 2.1 0.09375
v -0.025 0.7250000000000001 0.09375
v 0 0.7250000000000001 0.09375
v 0.025 2.0375 0.09375
v 0.025 0.7250000000000001 0.09375
vt 0.5606642383404763 0.5
vt 0.65625 0.5
vt 0.6337739030745752 0.47494713229428287
vt 0.5823772267922005 0.47428405240672067
vt 0.21875 0.375
vt 0.22265625 1
vt 0.25 0.9625
vt 0.25 0.375
vt 0.53125 0.40625
vt 0.53125 0.46875
vt 0.5625 0.4375
vt 0.5625 0.40625
vt 0.05859375 1
vt 0.0625 0.375
vt 0.0234375 0.375
vt 0.0234375 0.9625
vt 0.25 0.40625
vt 0.25 1
vt 0.28125 1
vt 0.28125 0.40625
vt 0.3125 1
vt 0.3125 0.40625
vt 0.28125 0.40625
vt 0.28125 1
vt 0.59375 1
vt 0.59375 0.9375
vt 0.5625 0.9375
vt 0.5625 0.96875
vt 0.125 1
vt 0.15625 0.96875
vt 0.15625 0.3125
vt 0.125 0.3125
vt 0.15625 0.96875
vt 0.1875 1
vt 0.1875 0.3125
vt 0.15625 0.3125
vt 0.09375 0.34375
vt 0.0625 0.34375
vt 0.0625 1
vt 0.09765625 0.975
vt 0.3125 0.40625
vt 0.3125 0.375
vt 0.28125 0.375
vt 0.28125 0.40625
vt 0.6131118586598675 0.8125
vt 0.65625 0.8125
vt 0.6381414964059136 0.78125
vt 0.5950014147603049 0.78125
vt 0.1875 0.975
vt 0.21875 1
vt 0.21875 0.34375
vt 0.19140625 0.34375
vt 0.625 0.6875
vt 0.625 0.65625
vt 0.59375 0.65625
vt 0.59375 0.6875
vt 0.5625 0.625
vt 0.5625 0.529415346082893
vt 0.53125 0.5511250879611456
vt 0.5319176654839812 0.6025230930384489
vt 0.59375 0.8137498038542574
vt 0.59375 0.8568898855694167
vt 0.625 0.875
vt 0.625 0.8318618587294151
vn 0.8666235504687823 0.3466494201875128 -0.3588841056058955
vn -1 0 0
vn 0 -1 0
vn 1 0 0
vn 0.9284766908852594 0 -0.37139067635410383
vn -0.9284766908852594 0 -0.37139067635410383
vn 0 -1 0
vn 0 0 1
vn 0 0 1
vn -1 0 0
vn 0 -1 0
vn 0.897697664809113 0.3590790659236452 -0.2553451135457035
vn 1 0 0
vn 0 -1 0
vn -0.8739453057000615 0.3376606862932056 -0.3495781222800245
vn -0.897697664809113 0.3590790659236452 -0.2553451135457035
usemtl m_3
f 46/161/49 47/162/49 41/163/49 37/164/49
f 43/165/50 42/166/50 39/167/50 40/168/50
f 48/169/51 45/170/51 38/171/51 44/172/51
f 41/173/52 44/174/52 38/175/52 37/176/52
f 45/177/53 46/178/53 37/179/53 38/180/53
f 46/181/54 45/182/54 40/183/54 39/184/54
f 45/185/55 48/186/55 43/187/55 40/188/55
f 50/189/56 49/190/56 51/191/56 52/192/56
f 53/193/57 50/194/57 52/195/57 54/196/57
f 43/197/58 51/198/58 49/199/58 42/200/58
f 48/201/59 52/202/59 51/203/59 43/204/59
f 47/205/60 50/206/60 53/207/60 41/208/60
f 41/209/61 53/210/61 54/211/61 44/212/61
f 44/213/62 54/214/62 52/215/62 48/216/62
f 47/217/63 46/218/63 39/219/63 42/220/63
f 42/221/64 49/222/64 50/223/64 47/224/64
o mesh2
v 0.03125 0.6814846176396804 0.03561548137250226
v 0.03125 0.6809392299385153 0.06686072184613949
v 0.03125 0.18156077006148477 0.02688927815386051
v 0.03125 0.18101538236031967 0.05813451862749774
v -0.03125 0.6814846176396804 0.03561548137250226
v -0.03125 0.6809392299385153 0.06686072184613949
v -0.03125 0.18156077006148477 0.02688927815386051
v -0.03125 0.18101538236031967 0.05813451862749774
vt 0.5 1
vt 0.515625 1
vt 0.515625 0.75
vt 0.5 0.75
vt 0.5 0.75
vt 0.515625 0.75
vt 0.515625 0.5
vt 0.5 0.5
vt 0.71875 0.359375
vt 0.6875 0.359375
vt 0.6875 0.375
vt 0.71875 0.375
vt 0.75 0.84375
vt 0.71875 0.84375
vt 0.71875 0.828125
vt 0.75 0.828125
vt 0.4375 0.75
vt 0.46875 0.75
vt 0.46875 0.5
vt 0.4375 0.5
vt 0.4375 1
vt 0.46875 1
vt 0.46875 0.75
vt 0.4375 0.75
vn 1 0 0
vn -1 0 0
vn 0 0.9998476951563913 0.01745240643728351
vn 0 -0.9998476951563913 -0.01745240643728351
vn 0 0.01745240643728351 -0.9998476951563913
vn 0 -0.01745240643728351 0.9998476951563913
usemtl m_3
f 55/225/65 56/226/65 58/227/65 57/228/65
f 60/229/66 59/230/66 61/231/66 62/232/66
f 60/233/67 56/234/67 55/235/67 59/236/67
f 61/237/68 57/238/68 58/239/68 62/240/68
f 59/241/69 55/242/69 57/243/69 61/244/69
f 56/245/70 60/246/70 62/247/70 58/248/70
o mesh3
v 0.03125 0.6809392299385153 -0.06686072184613949
v 0.03125 0.6814846176396804 -0.03561548137250226
v 0.03125 0.18101538236031967 -0.05813451862749774
v 0.03125 0.18156077006148477 -0.02688927815386051
v -0.03125 0.6809392299385153 -0.06686072184613949
v -0.03125 0.6814846176396804 -0.03561548137250226
v -0.03125 0.18101538236031967 -0.05813451862749774
v -0.03125 0.18156077006148477 -0.02688927815386051
vt 0.3125 0.5
vt 0.328125 0.5
vt 0.328125 0.25
vt 0.3125 0.25
vt 0.34375 0.5
vt 0.359375 0.5
vt 0.359375 0.25
vt 0.34375 0.25
vt 0.21875 0.265625
vt 0.1875 0.265625
vt 0.1875 0.28125
vt 0.21875 0.28125
vt 0.75 0.8125
vt 0.71875 0.8125
vt 0.71875 0.796875
vt 0.75 0.796875
vt 0.46875 0.75
vt 0.5 0.75
vt 0.5 0.5
vt 0.46875 0.5
vt 0.46875 1
vt 0.5 1
vt 0.5 0.75
vt 0.46875 0.75
vn 1 0 0
vn -1 0 0
vn 0 0.9998476951563913 -0.01745240643728351
vn 0 -0.9998476951563913 0.01745240643728351
vn 0 -0.01745240643728351 -0.9998476951563913
vn 0 0.01745240643728351 0.9998476951563913
usemtl m_3
f 63/249/71 64/250/71 66/251/71 65/252/71
f 68/253/72 67/254/72 69/255/72 70/256/72
f 68/257/73 64/258/73 63/259/73 67/260/73
f 69/261/74 65/262/74 66/263/74 70/264/74
f 67/265/75 63/266/75 65/267/75 69/268/75
f 64/269/76 68/270/76 70/271/76 66/272/76
o mesh4
v -0.03125 0.68125 -0.046875
v -0.03125 0.68125 0.046875
v -0.03125 0.18125 -0.046875
v -0.03125 0.18125 0.046875
v -0.046875 0.68125 -0.046875
v -0.046875 0.68125 0.046875
v -0.046875 0.18125 -0.046875
v -0.046875 0.18125 0.046875
vt 0.3125 1
vt 0.359375 1
vt 0.359375 0.75
vt 0.3125 0.75
vt 0.3125 0.75
vt 0.359375 0.75
vt 0.359375 0.5
vt 0.3125 0.5
vt 0.640625 0.265625
vt 0.625 0.265625
vt 0.625 0.3125
vt 0.640625 0.3125
vt 0.078125 0.28125
vt 0.0625 0.28125
vt 0.0625 0.234375
vt 0.078125 0.234375
vt 0.40625 0.5
vt 0.421875 0.5
vt 0.421875 0.25
vt 0.40625 0.25
vt 0.375 0.5
vt 0.390625 0.5
vt 0.390625 0.25
vt 0.375 0.25
vn 1 0 0
vn -1 0 0
vn 0 1 0
vn 0 -1 0
vn 0 0 -1
vn 0 0 1
usemtl m_3
f 71/273/77 72/274/77 74/275/77 73/276/77
f 76/277/78 75/278/78 77/279/78 78/280/78
f 76/281/79 72/282/79 71/283/79 75/284/79
f 77/285/80 73/286/80 74/287/80 78/288/80
f 75/289/81 71/290/81 73/291/81 77/292/81
f 72/293/82 76/294/82 78/295/82 74/296/82
o mesh5
v 0.046875 0.68125 -0.046875
v 0.046875 0.68125 0.046875
v 0.046875 0.18125 -0.046875
v 0.046875 0.18125 0.046875
v 0.03125 0.68125 -0.046875
v 0.03125 0.68125 0.046875
v 0.03125 0.18125 -0.046875
v 0.03125 0.18125 0.046875
vt 0.375 1
vt 0.421875 1
vt 0.421875 0.75
vt 0.375 0.75
vt 0.375 0.75
vt 0.421875 0.75
vt 0.421875 0.5
vt 0.375 0.5
vt 0.734375 0.890625
vt 0.71875 0.890625
vt 0.71875 0.9375
vt 0.734375 0.9375
vt 0.171875 0.28125
vt 0.15625 0.28125
vt 0.15625 0.234375
vt 0.171875 0.234375
vt 0.46875 0.5
vt 0.484375 0.5
vt 0.484375 0.25
vt 0.46875 0.25
vt 0.4375 0.5
vt 0.453125 0.5
vt 0.453125 0.25
vt 0.4375 0.25
vn 1 0 0
vn -1 0 0
vn 0 1 0
vn 0 -1 0
vn 0 0 -1
vn 0 0 1
usemtl m_3
f 79/297/83 80/298/83 82/299/83 81/300/83
f 84/301/84 83/302/84 85/303/84 86/304/84
f 84/305/85 80/306/85 79/307/85 83/308/85
f 85/309/86 81/310/86 82/311/86 86/312/86
f 83/313/87 79/314/87 81/315/87 85/316/87
f 80/317/88 84/318/88 86/319/88 82/320/88
o mesh7
v 0.03125 0.73125 -0.3125
v 0.03125 0.73125 -0.0625
v 0.03125 0.6875 -0.3125
v 0.03125 0.6875 -0.0625
v -0.03125 0.73125 -0.3125
v -0.03125 0.73125 -0.0625
v -0.03125 0.6875 -0.3125
v -0.03125 0.6875 -0.0625
vt 0.59375 1
vt 0.71875 1
vt 0.71875 0.984375
vt 0.59375 0.984375
vt 0.59375 0.96875
vt 0.71875 0.96875
vt 0.71875 0.953125
vt 0.59375 0.953125
vt 0.53125 0.375
vt 0.5 0.375
vt 0.5 0.5
vt 0.53125 0.5
vt 0.5625 1
vt 0.53125 1
vt 0.53125 0.875
vt 0.5625 0.875
vt 0.71875 0.78125
vt 0.75 0.78125
vt 0.75 0.765625
vt 0.71875 0.765625
vt 0.21875 0.28125
vt 0.25 0.28125
vt 0.25 0.265625
vt 0.21875 0.265625
vn 1 0 0
vn -1 0 0
vn 0 1 0
vn 0 -1 0
vn 0 0 -1
vn 0 0 1
usemtl m_3
f 87/321/89 88/322/89 90/323/89 89/324/89
f 92/325/90 91/326/90 93/327/90 94/328/90
f 92/329/91 88/330/91 87/331/91 91/332/91
f 93/333/92 89/334/92 90/335/92 94/336/92
f 91/337/93 87/338/93 89/339/93 93/340/93
f 88/341/94 92/342/94 94/343/94 90/344/94
o mesh8
v 0.03125 0.73125 0.0625
v 0.03125 0.73125 0.3125
v 0.03125 0.6875 0.0625
v 0.03125 0.6875 0.3125
v -0.03125 0.73125 0.0625
v -0.03125 0.73125 0.3125
v -0.03125 0.6875 0.0625
v -0.03125 0.6875 0.3125
vt 0.59375 0.9375
vt 0.71875 0.9375
vt 0.71875 0.921875
vt 0.59375 0.921875
vt 0.59375 0.90625
vt 0.71875 0.90625
vt 0.71875 0.890625
vt 0.59375 0.890625
vt 0.5625 0.75
vt 0.53125 0.75
vt 0.53125 0.875
vt 0.5625 0.875
vt 0.5625 0.75
vt 0.53125 0.75
vt 0.53125 0.625
vt 0.5625 0.625
vt 0.71875 0.71875
vt 0.75 0.71875
vt 0.75 0.703125
vt 0.71875 0.703125
vt 0.71875 0.75
vt 0.75 0.75
vt 0.75 0.734375
vt 0.71875 0.734375
vn 1 0 0
vn -1 0 0
vn 0 1 0
vn 0 -1 0
vn 0 0 -1
vn 0 0 1
usemtl m_3
f 95/345/95 96/346/95 98/347/95 97/348/95
f 100/349/96 99/350/96 101/351/96 102/352/96
f 100/353/97 96/354/97 95/355/97 99/356/97
f 101/357/98 97/358/98 98/359/98 102/360/98
f 99/361/99 95/362/99 97/363/99 101/364/99
f 96/365/100 100/366/100 102/367/100 98/368/100