# Made in Blockbench 4.2.5
mtllib hatchet.mtl

o mash1
v 0.03125 1.265625 0.046875
v 0.03125 1.265625 -0.046875
v 0.03125 0 0.046875
v 0.03125 0 -0.046875
v -0.03125 1.265625 0.046875
v -0.03125 1.265625 -0.046875
v -0.03125 0 0.046875
v -0.03125 0 -0.046875
vt 0.0625 1
vt 0 1
vt 0 0.375
vt 0.0625 0.375
vt 0.125 0.375
vt 0.125 1
vt 0.0625 1
vt 0.0625 0.375
vt 0.53125 0.875
vt 0.5625 0.875
vt 0.5625 0.9375
vt 0.53125 0.9375
vt 0.5625 0.8125
vt 0.5625 0.875
vt 0.53125 0.875
vt 0.53125 0.8125
vt 0.28125 0.375
vt 0.28125 1
vt 0.25 1
vt 0.25 0.375
vt 0.3125 1
vt 0.28125 1
vt 0.28125 0.375
vt 0.3125 0.375
vn 1 0 0
vn -1 0 0
vn 0 1 0
vn 0 -1 0
vn 0 0 1
vn 0 0 -1
usemtl m_0
f 2/1/1 1/2/1 3/3/1 4/4/1
f 7/5/2 5/6/2 6/7/2 8/8/2
f 5/9/3 1/10/3 2/11/3 6/12/3
f 4/13/4 3/14/4 7/15/4 8/16/4
f 3/17/5 1/18/5 5/19/5 7/20/5
f 6/21/6 2/22/6 4/23/6 8/24/6
o mash2
v 0.046875 1.265625 0.03125
v 0.046875 1.265625 -0.03125
v 0.046875 0 0.03125
v 0.046875 0 -0.03125
v 0.03125 1.265625 -0.03125
v 0.03125 1.265625 0.03125
v 0.03125 0 -0.03125
v 0.03125 0 0.03125
vt 0.3125 1
vt 0.328125 1
vt 0.328125 0.359375
vt 0.3125 0.359375
vt 0.125 1
vt 0.15625 1
vt 0.15625 0.359375
vt 0.125 0.359375
vt 0.34375 1
vt 0.359375 1
vt 0.359375 0.359375
vt 0.34375 0.359375
vt 0.15625 1
vt 0.1875 1
vt 0.1875 0.359375
vt 0.15625 0.359375
vt 0.609375 0.71875
vt 0.59375 0.71875
vt 0.59375 0.75
vt 0.609375 0.75
vt 0.609375 0.71875
vt 0.59375 0.71875
vt 0.59375 0.6875
vt 0.609375 0.6875
vn 0 0 -1
vn 1 0 0
vn 0 0 1
vn -1 0 0
vn 0 1 0
vn 0 -1 0
usemtl m_0
f 12/28/7 15/27/7 13/26/7 10/25/7
f 11/32/8 12/31/8 10/30/8 9/29/8
f 16/36/9 11/35/9 9/34/9 14/33/9
f 15/40/10 16/39/10 14/38/10 13/37/10
f 14/44/11 9/43/11 10/42/11 13/41/11
f 15/48/12 12/47/12 11/46/12 16/45/12
o mash3
v -0.03125 1.265625 0.03125
v -0.03125 1.265625 -0.03125
v -0.03125 0 0.03125
v -0.03125 0 -0.03125
v -0.046875 1.265625 -0.03125
v -0.046875 1.265625 0.03125
v -0.046875 0 -0.03125
v -0.046875 0 0.03125
vt 0.375 1
vt 0.390625 1
vt 0.390625 0.359375
vt 0.375 0.359375
vt 0.1875 1
vt 0.21875 1
vt 0.21875 0.359375
vt 0.1875 0.359375
vt 0.40625 1
vt 0.421875 1
vt 0.421875 0.359375
vt 0.40625 0.359375
vt 0.21875 1
vt 0.25 1
vt 0.25 0.359375
vt 0.21875 0.359375
vt 0.609375 0.65625
vt 0.59375 0.65625
vt 0.59375 0.6875
vt 0.609375 0.6875
vt 0.609375 0.65625
vt 0.59375 0.65625
vt 0.59375 0.625
vt 0.609375 0.625
vn 0 0 -1
vn 1 0 0
vn 0 0 1
vn -1 0 0
vn 0 1 0
vn 0 -1 0
usemtl m_0
f 20/52/13 23/51/13 21/50/13 18/49/13
f 19/56/14 20/55/14 18/54/14 17/53/14
f 24/60/15 19/59/15 17/58/15 22/57/15
f 23/64/16 24/63/16 22/62/16 21/61/16
f 22/68/17 17/67/17 18/66/17 21/65/17
f 23/72/18 20/71/18 19/70/18 24/69/18
o mash4
v 0.0546875 1.25 0.0390625
v 0.0546875 1.25 -0.0390625
v 0.0546875 1.125 0.0390625
v 0.0546875 1.125 -0.0390625
v 0.03125 1.25 -0.0390625
v 0.03125 1.25 0.0390625
v 0.03125 1.125 -0.0390625
v 0.03125 1.125 0.0390625
vt 0.53125 0.53125
vt 0.546875 0.53125
vt 0.546875 0.46875
vt 0.53125 0.46875
vt 0.4375 0.5625
vt 0.484375 0.5625
vt 0.484375 0.5
vt 0.4375 0.5
vt 0.5 0.46875
vt 0.515625 0.46875
vt 0.515625 0.40625
vt 0.5 0.40625
vt 0.46875 0.8125
vt 0.515625 0.8125
vt 0.515625 0.75
vt 0.46875 0.75
vt 0.578125 0.453125
vt 0.5625 0.453125
vt 0.5625 0.5
vt 0.578125 0.5
vt 0.578125 0.4375
vt 0.5625 0.4375
vt 0.5625 0.390625
vt 0.578125 0.390625
vn 0 0 -1
vn 1 0 0
vn 0 0 1
vn -1 0 0
vn 0 1 0
vn 0 -1 0
usemtl m_0
f 28/76/19 31/75/19 29/74/19 26/73/19
f 27/80/20 28/79/20 26/78/20 25/77/20
f 32/84/21 27/83/21 25/82/21 30/81/21
f 31/88/22 32/87/22 30/86/22 29/85/22
f 30/92/23 25/91/23 26/90/23 29/89/23
f 31/96/24 28/95/24 27/94/24 32/93/24
o mash5
v -0.03125 1.25 0.0390625
v -0.03125 1.25 -0.0390625
v -0.03125 1.125 0.0390625
v -0.03125 1.125 -0.0390625
v -0.0546875 1.25 -0.0390625
v -0.0546875 1.25 0.0390625
v -0.0546875 1.125 -0.0390625
v -0.0546875 1.125 0.0390625
vt 0.53125 0.46875
vt 0.546875 0.46875
vt 0.546875 0.40625
vt 0.53125 0.40625
vt 0.46875 0.75
vt 0.515625 0.75
vt 0.515625 0.6875
vt 0.46875 0.6875
vt 0.5625 1
vt 0.578125 1
vt 0.578125 0.9375
vt 0.5625 0.9375
vt 0.46875 0.6875
vt 0.515625 0.6875
vt 0.515625 0.625
vt 0.46875 0.625
vt 0.609375 0.953125
vt 0.59375 0.953125
vt 0.59375 1
vt 0.609375 1
vt 0.609375 0.9375
vt 0.59375 0.9375
vt 0.59375 0.890625
vt 0.609375 0.890625
vn 0 0 -1
vn 1 0 0
vn 0 0 1
vn -1 0 0
vn 0 1 0
vn 0 -1 0
usemtl m_0
f 36/100/25 39/99/25 37/98/25 34/97/25
f 35/104/26 36/103/26 34/102/26 33/101/26
f 40/108/27 35/107/27 33/106/27 38/105/27
f 39/112/28 40/111/28 38/110/28 37/109/28
f 38/116/29 33/115/29 34/114/29 37/113/29
f 39/120/30 36/119/30 35/118/30 40/117/30
o mash6
v 0.0390625 1.25 0.0546875
v 0.0390625 1.25 0.03125
v 0.0390625 1.125 0.0546875
v 0.0390625 1.125 0.03125
v -0.0390625 1.25 0.03125
v -0.0390625 1.25 0.0546875
v -0.0390625 1.125 0.03125
v -0.0390625 1.125 0.0546875
vt 0.46875 0.625
vt 0.515625 0.625
vt 0.515625 0.5625
vt 0.46875 0.5625
vt 0.5625 0.9375
vt 0.578125 0.9375
vt 0.578125 0.875
vt 0.5625 0.875
vt 0.5 1
vt 0.546875 1
vt 0.546875 0.9375
vt 0.5 0.9375
vt 0.5625 0.875
vt 0.578125 0.875
vt 0.578125 0.8125
vt 0.5625 0.8125
vt 0.640625 0.859375
vt 0.59375 0.859375
vt 0.59375 0.875
vt 0.640625 0.875
vt 0.640625 0.84375
vt 0.59375 0.84375
vt 0.59375 0.828125
vt 0.640625 0.828125
vn 0 0 -1
vn 1 0 0
vn 0 0 1
vn -1 0 0
vn 0 1 0
vn 0 -1 0
usemtl m_0
f 44/124/31 47/123/31 45/122/31 42/121/31
f 43/128/32 44/127/32 42/126/32 41/125/32
f 48/132/33 43/131/33 41/130/33 46/129/33
f 47/136/34 48/135/34 46/134/34 45/133/34
f 46/140/35 41/139/35 42/138/35 45/137/35
f 47/144/36 44/143/36 43/142/36 48/141/36
o mash7
v -0.018750000000000003 1.2625000000000002 -0.203125
v 0.0390625 1.25 -0.03125
v 0.0375 1.25 -0.0625
v 0.0390625 1.125 -0.03125
v 0.0375 1.125 -0.0625
v -0.0390625 1.25 -0.03125
v -0.0375 1.25 -0.0625
v -0.0390625 1.125 -0.03125
v -0.0375 1.125 -0.0625
v -0.025 1.25625 -0.15625
v 0.025 1.25625 -0.15625
v -0.025 1.11875 -0.15625
v 0.025 1.11875 -0.15625
v -0.0125 1.26875 -0.25
v 0.0125 1.26875 -0.25
v -0.0125 1.08125 -0.25
v 0.0125 1.08125 -0.25
v 0 1.28125 -0.3125
v 0 1.03125 -0.3125
v 0 1.121875 -0.109375
v 0 1.125 -0.0625
v 0 1.125 -0.03125
v 0 1.25 -0.03125
v 0 1.25 -0.0625
v 0 1.25 -0.109375
v 0 1.25625 -0.15625
v 0 1.26875 -0.25
v 0 1.11875 -0.15625
v 0 1.08125 -0.25
v 0.018750000000000003 1.2625000000000002 -0.203125
v 0.018750000000000003 1.10625 -0.203125
v 0 1.10625 -0.203125
v -0.018750000000000003 1.10625 -0.203125
v 0 1.2625000000000002 -0.203125
v 0.025 1.1875 -0.15625
v 0.0375 1.1875 -0.0625
v 0.0390625 1.1875 -0.03125
v 0 1.1875 -0.03125
v -0.0390625 1.1875 -0.03125
v -0.0375 1.1875 -0.0625
v -0.025 1.1875 -0.15625
v -0.018750000000000003 1.1843750000000002 -0.203125
v -0.0125 1.175 -0.25
v 0 1.15625 -0.3125
v 0.0125 1.175 -0.25
v 0.018750000000000003 1.1843750000000002 -0.203125
vt 0.53125 0.6875
vt 0.53125 0.65625
vt 0.5625 0.65625
vt 0.5625 0.6875
vt 0.53125 0.625
vt 0.53125 0.59375
vt 0.5625 0.59375
vt 0.5625 0.625
vt 0.6125 0.8125
vt 0.59375 0.8125
vt 0.59375 0.78125
vt 0.61328125 0.78125
vt 0.61328125 0.78125
vt 0.59375 0.78125
vt 0.59375 0.75
vt 0.6125 0.75
vt 0.53125 0.8125
vt 0.53125 0.78125
vt 0.5625 0.78125
vt 0.5625 0.8125
vt 0.4375 1
vt 0.4375 0.965625
vt 0.5 0.965625
vt 0.5 0.996875
vt 0.5625 0.53125
vt 0.5843395058348769 0.5158111039812102
vt 0.6076282669251671 0.5131748162257894
vt 0.6096743777284078 0.53125
vt 0.4375 0.903125
vt 0.4375 0.871875
vt 0.5 0.871875
vt 0.5 0.90625
vt 0.5786420534321486 0.53125
vt 0.576169328755473 0.5625
vt 0.552886971671764 0.5594025002216845
vt 0.53125 0.53125
vt 0.5 0.5625
vt 0.5 0.5234375
vt 0.53125 0.525
vt 0.53125 0.5593750000000001
vt 0.46875 0.49687500000000007
vt 0.46875 0.4625
vt 0.5 0.4609375
vt 0.5 0.5
vt 0.4375 0.8125
vt 0.4375 0.75
vt 0.46875 0.759375
vt 0.46875 0.80625
vt 0.5625 0.59375
vt 0.5779887352539163 0.6153869716717639
vt 0.5810862350322318 0.638669328755473
vt 0.5625 0.6411420534321486
vt 0.50078125 0.8125
vt 0.53125 0.8125
vt 0.53125 0.84375
vt 0.5 0.84375
vt 0.53125 0.75
vt 0.53125 0.71875
vt 0.5625 0.71875
vt 0.5625 0.75
vt 0.5625 0.78125
vt 0.59375 0.78125
vt 0.59375 0.8125
vt 0.56328125 0.8125
vt 0.5625 0.59375
vt 0.5649780697517066 0.5751644768622006
vt 0.5882099736739559 0.5782620640518339
vt 0.6097898310950673 0.59375
vt 0.625 1
vt 0.625 0.96813125
vt 0.63125 0.96813125
vt 0.60625 0.59375
vt 0.603125 0.625
vt 0.59375 0.625
vt 0.59375 0.59375
vt 0.60625 0.53885625
vt 0.60625 0.5625
vt 0.59375 0.5625
vt 0.5625 0.71875
vt 0.565625 0.6875
vt 0.59375 0.6875
vt 0.59375 0.71875
vt 0.6 0.375
vt 0.6 0.41501875
vt 0.59375 0.41501875
vt 0.59375 0.71875
vt 0.59375 0.75
vt 0.565625 0.75
vt 0.5625 0.71875
vt 0.03125 0.34313125
vt 0.0375 0.34313125
vt 0.0375 0.375
vt 0.48125 0.40625
vt 0.46875 0.40625
vt 0.46875 0.38260625000000004
vt 0.4375 0.40625
vt 0.4375 0.375
vt 0.446875 0.375
vt 0.45 0.40625
vt 0.00625 0.35251875
vt 0 0.35251875
vt 0 0.3125
vt 0.5 0.934375
vt 0.5 0.8953125
vt 0.53125 0.890625
vt 0.53125 0.9375
vt 0.6 0.4375
vt 0.603125 0.46875
vt 0.59375 0.46875
vt 0.59375 0.4375
vt 0.59375 0.65625
vt 0.59375 0.6875
vt 0.5625 0.6875
vt 0.565625 0.65625
vt 0.4375 0.5
vt 0.4375 0.453125
vt 0.46875 0.45781249999999996
vt 0.46875 0.49687499999999996
vt 0.565625 0.78125
vt 0.5625 0.75
vt 0.59375 0.75
vt 0.59375 0.78125
vt 0.53125 0.40625
vt 0.53125 0.375
vt 0.540625 0.375
vt 0.5375 0.40625
vt 0.4375 0.68125
vt 0.4375 0.634375
vt 0.46875 0.625
vt 0.46875 0.6875
vt 0.465625 0.546875
vt 0.453125 0.523384375
vt 0.465625 0.523384375
vt 0.453125 0.523384375
vt 0.465625 0.523384375
vt 0.453125 0.546875
vt 0.5 0.8374999999999999
vt 0.5 0.871875
vt 0.4375 0.871875
vt 0.4375 0.840625
vt 0.5625 0.625
vt 0.5625 0.65625
vt 0.53125 0.65625
vt 0.53125 0.625
vt 0.5625 0.75
vt 0.5625 0.78125
vt 0.53125 0.78125
vt 0.53125 0.75
vt 0.5625 0.6875
vt 0.5625 0.71875
vt 0.53125 0.71875
vt 0.53125 0.6875
vt 0.5625 0.5625
vt 0.5625 0.59375
vt 0.53125 0.59375
vt 0.53125 0.5625
vt 0.5 0.934375
vt 0.5 0.965625
vt 0.4375 0.965625
vt 0.4375 0.9312499999999999
vt 0.53125 0.490625
vt 0.53125 0.525
vt 0.5 0.5234375
vt 0.5 0.484375
vt 0.46875 0.41874999999999996
vt 0.46875 0.45781249999999996
vt 0.4375 0.453125
vt 0.4375 0.40625
vt 0.46875 0.7125
vt 0.46875 0.759375
vt 0.4375 0.75
vt 0.4375 0.6875
vt 0.46875 0.5625
vt 0.46875 0.625
vt 0.4375 0.634375
vt 0.4375 0.5875
vt 0.53125 0.84375
vt 0.53125 0.890625
vt 0.5 0.8953125
vt 0.5 0.85625
vt 0.5 0.421875
vt 0.5 0.4609375
vt 0.46875 0.4625
vt 0.46875 0.428125
vn 0.9987523388778449 0 -0.04993761694389229
vn -0.9987523388778449 0 -0.04993761694389229
vn 0 1 0
vn 0 -1 0
vn 0 0 1
vn -0.9912279006826347 0 -0.13216372009101793
vn -0.2425356250363362 0.9701425001453311 0
vn 0.9912279006826347 0 -0.13216372009101793
vn 0 -0.9977851578566089 0.06651901052377487
vn -0.9912279006826347 0 -0.13216372009101793
vn 0.9912279006826347 0 -0.13216372009101793
vn -0.9805806756909203 0 -0.19611613513818407
vn 0 -0.997785157856609 0.06651901052377487
vn 0 -1 0
vn 0 0 1
vn 0 1 0
vn 0 1 0
vn 0 0.9805806756909204 0.1961161351381834
vn 0 0.9912279006826344 0.1321637200910198
vn 0 0.9912279006826344 0.1321637200910198
vn 0 -0.9662349396012465 0.2576626505603315
vn 0 -0.7808688094430303 0.6246950475544246
vn 0 0.9912279006826346 0.13216372009101982
vn 0 0.9805806756909204 0.1961161351381834
vn 0 0.9912279006826344 0.1321637200910198
vn 0 -0.9662349396012466 0.25766265056033155
vn 0 -0.7808688094430303 0.6246950475544246
vn 0.9912279006826347 0 -0.132163720091018
vn 0 -0.8823529411764712 0.47058823529411636
vn 0 -0.8823529411764712 0.47058823529411636
vn -0.9912279006826348 0 -0.132163720091018
vn 0 0.9912279006826352 0.1321637200910152
vn 0 0.9912279006826352 0.1321637200910152
vn 0.9805806756909202 0 -0.19611613513818407
vn 0 -0.997785157856609 0.06651901052377487
vn 0 -0.997785157856609 0.06651901052377487
vn 0.9912279006826347 0 -0.13216372009101793
vn 0.9987523388778449 0 -0.04993761694389229
vn 0 0 1
vn 0 0 1
vn -0.9987523388778449 0 -0.04993761694389229
vn -0.9912279006826347 0 -0.13216372009101793
vn -0.9912279006826347 0 -0.13216372009101793
vn -0.9912279006826347 0 -0.13216372009101798
vn -0.9805806756909202 0 -0.19611613513818407
vn 0.9805806756909203 0 -0.19611613513818407
vn 0.9912279006826348 0 -0.132163720091018
vn 0.9912279006826347 0 -0.13216372009101793
usemtl m_0
f 50/145/37 85/146/37 84/147/37 51/148/37
f 55/149/38 88/150/38 87/151/38 54/152/38
f 51/153/39 72/154/39 71/155/39 50/156/39
f 52/157/40 70/158/40 69/159/40 53/160/40
f 71/161/41 86/162/41 85/163/41 50/164/41
f 58/165/42 89/166/42 88/167/42 55/168/42
f 59/169/43 73/170/43 72/171/43 51/172/43
f 51/173/44 84/174/44 83/175/44 59/176/44
f 53/177/45 69/178/45 68/179/45 61/180/45
f 49/181/46 90/182/46 89/183/46 58/184/46
f 59/185/47 83/186/47 94/187/47 78/188/47
f 66/189/48 92/190/48 91/191/48 62/192/48
f 60/193/49 68/194/49 69/195/49 57/196/49
f 57/197/50 69/198/50 70/199/50 56/200/50
f 54/201/51 87/202/51 86/203/51 71/204/51
f 54/205/52 71/206/52 72/207/52 55/208/52
f 55/209/53 72/210/53 73/211/53 58/212/53
f 66/213/54 75/214/54 63/215/54
f 59/216/55 78/217/55 82/218/55 74/219/55
f 73/220/56 74/221/56 58/222/56
f 60/223/57 81/224/57 80/225/57 76/226/57
f 67/227/58 77/228/58 64/229/58
f 74/230/59 82/231/59 49/232/59 58/233/59
f 62/234/60 75/235/60 66/236/60
f 59/237/61 74/238/61 73/239/61
f 76/240/62 80/241/62 79/242/62 61/243/62
f 65/244/63 77/245/63 67/246/63
f 78/247/64 94/248/64 93/249/64 63/250/64
f 65/251/65 79/252/65 80/253/65 77/254/65
f 77/255/66 80/256/66 81/257/66 64/258/66
f 62/259/67 91/260/67 90/261/67 49/262/67
f 62/263/68 49/264/68 82/265/68 75/266/68
f 75/267/69 82/268/69 78/269/69 63/270/69
f 63/271/70 93/272/70 92/273/70 66/274/70
f 68/275/71 60/276/71 76/277/71
f 76/278/72 61/279/72 68/280/72
f 61/281/73 83/282/73 84/283/73 53/284/73
f 53/285/74 84/286/74 85/287/74 52/288/74
f 52/289/75 85/290/75 86/291/75 70/292/75
f 70/293/76 86/294/76 87/295/76 56/296/76
f 56/297/77 87/298/77 88/299/77 57/300/77
f 57/301/78 88/302/78 89/303/78 60/304/78
f 60/305/79 89/306/79 90/307/79 81/308/79
f 81/309/80 90/310/80 91/311/80 64/312/80
f 64/313/81 91/314/81 92/315/81 67/316/81
f 67/317/82 92/318/82 93/319/82 65/320/82
f 65/321/83 93/322/83 94/323/83 79/324/83
f 79/325/84 94/326/84 83/327/84 61/328/84